<?xml version="1.0" encoding="UTF-8"?>
<svg id="Layer_1" data-name="Layer 1" xmlns="http://www.w3.org/2000/svg" viewBox="0 0 847.48 270.96">
  <defs>
    <style>
      .cls-1 {
        fill: #000;
      }

      .cls-1, .cls-2, .cls-3 {
        stroke-width: 0px;
      }

      .cls-2 {
        fill: #414042;
      }

      .cls-3 {
        fill: #231f20;
      }
    </style>
  </defs>
  <g>
    <path class="cls-3" d="M53.8,159.73c0-47.42,178.79-85.86,399.34-85.86,44.18,0,86.68,1.54,126.41,4.39-54.14-5.9-115.37-9.22-180.21-9.22C178.79,69.05,0,107.49,0,154.9c0,37.92,114.34,70.1,272.93,81.47-130.01-14.16-219.13-43.16-219.13-76.64Z"/>
    <path class="cls-3" d="M793.68,154.41c0,47.42-178.79,85.86-399.34,85.86-44.18,0-86.68-1.54-126.41-4.39,54.14,5.9,115.37,9.22,180.21,9.22,220.55,0,399.34-38.44,399.34-85.86,0-37.92-114.34-70.1-272.93-81.47,130.01,14.16,219.13,43.16,219.13,76.64Z"/>
  </g>
  <path class="cls-3" d="M737.73,95.12c-89.59,3.06-92.06,5.54-95.12,95.12-3.06-89.59-5.54-92.06-95.12-95.12,89.59-3.06,92.06-5.54,95.12-95.12,3.06,89.59,5.54,92.06,95.12,95.12Z"/>
  <g>
    <path class="cls-2" d="M150.64,123.91h28.3l32.75,61.05h-26.8l-4.82-10.45h-30.57l-4.81,10.45h-26.8l32.75-61.05ZM156.41,159.61h16.76l-8.36-18.03-8.4,18.03Z"/>
    <path class="cls-2" d="M273.07,123.82h23.85v61.05h-26.8l-32.8-37.29v37.29h-23.8v-61.05h32.75l26.8,32.34v-32.34Z"/>
    <path class="cls-2" d="M365.1,123.91c16.76-.23,29.21,13.85,29.07,30.53.14,16.58-12.31,30.75-29.07,30.53h-54.33v-61.05h54.33ZM360.65,143.26h-26.07v22.35h26.07c6.18,0,9.68-5.04,9.68-11.17s-3.5-11.17-9.68-11.17Z"/>
    <path class="cls-2" d="M431.87,145.8l17.9-21.9h28.25l-34.25,40.2v20.85h-23.8v-20.85l-34.25-40.2h28.3l17.85,21.9Z"/>
    <path class="cls-2" d="M538.67,123.86c12.58-.14,23.26,10.45,23.08,23.08,0,4.59-1.23,8.77-3.68,12.49-2.41,3.68-5.63,6.5-9.63,8.36l13.31,17.12h-25.35l-11.49-14.9h-21.26v14.9h-23.8v-61.05h58.83ZM503.64,141.71v10.4h29.03c1.45,0,2.68-.5,3.68-1.5,1.04-1.04,1.54-2.27,1.54-3.68,0-2.91-2.32-5.22-5.22-5.22h-29.03Z"/>
    <path class="cls-2" d="M593.95,184.96v-41.7h-28.3v-19.35h80.4v19.35h-28.3v41.7h-23.8Z"/>
    <path class="cls-2" d="M693.29,166.29l18.62-42.38h26.8l-31.3,61.05h-28.3l-31.25-61.05h26.8l18.62,42.38Z"/>
  </g>
  <path class="cls-1" d="M274.83,206.2c-60.99,2.08-62.68,3.77-64.76,64.76-2.08-60.99-3.77-62.68-64.76-64.76,60.99-2.08,62.68-3.77,64.76-64.76,2.08,60.99,3.77,62.68,64.76,64.76Z"/>
</svg>